<?xml version="1.0" standalone="no"?>
<!DOCTYPE svg PUBLIC "-//W3C//DTD SVG 20010904//EN"
 "http://www.w3.org/TR/2001/REC-SVG-20010904/DTD/svg10.dtd">
<svg version="1.0" xmlns="http://www.w3.org/2000/svg"
 width="820.000000pt" height="860.000000pt" viewBox="0 0 820.000000 860.000000"
 preserveAspectRatio="xMidYMid meet">

<g transform="translate(0.000000,860.000000) scale(0.100000,-0.100000)"
fill="#000000" stroke="none">
<path d="M3568 7933 l-3 -88 -177 -3 -178 -2 0 -85 0 -84 -87 -3 -88 -3 -3
-177 -2 -178 -85 0 -85 0 0 -265 0 -265 -90 0 -90 0 0 -445 0 -445 85 0 85 0
0 -85 0 -85 -85 0 -85 0 0 -95 0 -95 90 0 90 0 0 -85 0 -85 85 0 85 0 0 -90 0
-90 90 0 90 0 0 -90 0 -89 -87 -3 -88 -3 -3 -177 -2 -178 -85 0 -85 0 -2 -262
-3 -263 -87 -3 -88 -3 0 -174 0 -175 -74 0 c-108 0 -106 2 -106 -96 l0 -83
-87 -3 -88 -3 -3 -87 -3 -88 -174 0 -175 0 0 -90 0 -90 -180 0 -180 0 0 -90 0
-90 -529 0 -528 0 -6 -112 c-4 -95 -3 -1499 2 -1755 l1 -83 175 0 175 0 0 180
0 180 -85 0 -85 0 2 173 3 172 84 1 84 2 -2 80 c-1 44 1 82 6 85 4 3 86 8 181
12 l172 8 0 88 0 89 -90 0 -91 0 3 83 c2 45 6 81 11 80 4 -2 122 -3 262 -3
l255 0 0 -80 0 -80 90 0 90 0 0 85 0 85 308 0 c170 0 370 3 445 7 l136 6 3 81
3 81 80 0 80 0 3 -81 3 -81 169 -8 c93 -4 174 -4 179 0 7 3 11 42 11 91 l0 84
-90 0 -91 0 3 88 3 87 88 3 87 3 0 89 0 90 90 0 90 0 0 84 0 84 31 6 c17 3 58
6 90 6 l59 0 0 85 0 85 85 0 84 0 3 88 3 87 87 3 87 3 3 -88 3 -88 177 -3 177
-2 3 -88 3 -87 67 3 c120 7 108 57 108 -448 l0 -439 88 -3 87 -3 -3 -177 -4
-178 91 0 91 0 2 -177 3 -178 85 0 85 0 5 -270 5 -270 83 -3 82 -3 -2 -167 -3
-167 -82 -3 -83 -3 0 -89 0 -90 355 0 354 0 3 87 3 88 263 3 262 2 0 85 0 85
268 2 267 3 0 175 0 175 -90 0 -90 0 -3 -81 -3 -81 -232 -6 c-128 -3 -285 -3
-349 0 l-118 6 0 78 0 78 83 3 82 3 3 88 3 87 -91 0 -90 0 0 -85 0 -85 -85 0
-85 0 -2 -177 -3 -178 -135 3 c-74 2 -151 4 -170 5 l-35 2 -3 77 -3 77 88 3
88 3 3 178 2 177 84 0 83 0 7 170 c4 93 5 174 1 180 -3 6 -45 10 -96 10 l-89
0 0 265 0 265 -52 0 c-29 0 -70 3 -90 6 l-38 7 -2 531 -3 531 -82 3 -83 3 0
79 c0 90 2 93 93 90 28 -1 58 -1 65 -1 8 1 12 25 12 85 l0 83 -90 7 -90 8 0
84 0 84 -87 2 c-49 1 -126 2 -173 2 l-85 1 -3 178 -2 177 -90 0 -90 0 0 90 0
90 -85 0 -85 0 0 53 c0 28 -3 69 -6 90 l-7 37 -83 0 -84 0 0 265 0 264 87 3
87 3 0 85 1 85 354 3 c269 2 357 5 363 15 5 6 8 39 7 72 0 33 0 66 0 73 1 14
146 18 155 4 3 -5 7 -82 10 -173 l5 -164 976 -3 975 -2 0 90 0 90 90 0 90 0 0
355 0 355 -90 0 -90 0 0 90 0 89 -707 -2 -708 -2 -3 93 -3 92 86 0 85 0 0 350
0 351 -87 -3 -88 -3 0 -170 c0 -93 -1 -210 -2 -258 l-3 -88 -82 3 -83 3 -3
258 -2 257 -175 0 -175 0 0 -85 0 -85 -90 0 -90 0 0 -180 0 -180 -180 0 -180
0 0 270 0 269 -87 3 -88 3 -3 82 -3 82 -82 3 -82 3 -3 178 -2 177 85 0 85 0 0
-90 0 -90 90 0 90 0 -2 178 -3 177 -87 3 -88 3 0 84 0 84 -87 3 -88 3 -3 88
-3 87 -439 0 -439 0 -3 -87z m702 -178 l0 -86 -82 3 -83 3 -3 83 -3 82 86 0
85 0 0 -85z m0 -534 l0 -89 30 -7 c16 -4 55 -5 87 -4 l58 3 3 -172 2 -173 -82
3 -83 3 -3 88 -3 87 -89 0 -90 0 0 -95 0 -95 85 0 85 0 0 -85 0 -85 -175 0
-175 0 0 90 0 91 -87 -3 -88 -3 -3 -87 -3 -87 88 -3 88 -3 3 -81 3 -81 -128
-6 c-70 -4 -149 -7 -175 -7 l-48 0 0 90 0 90 -95 0 -95 0 0 -85 0 -85 -80 0
-80 0 0 350 0 350 85 0 85 0 0 83 c0 46 3 87 7 90 3 4 201 7 440 7 l433 0 0
-89z m1250 -621 l0 -170 -85 0 -85 0 0 170 0 170 85 0 85 0 0 -170z m-1072
-174 l-3 -171 -85 -5 -85 -5 -5 -85 -5 -85 -168 -3 -168 -2 3 82 3 83 83 3 82
3 0 89 0 90 90 0 90 0 0 83 c0 46 3 87 7 90 3 4 42 7 85 6 l78 -1 -2 -172z
m-888 -91 l0 -85 -85 0 -85 0 0 78 c0 43 3 82 7 85 3 4 42 7 85 7 l78 0 0 -85z
m1248 -187 l3 -88 84 0 85 0 0 -78 c0 -47 5 -83 12 -90 7 -7 43 -12 90 -12
l78 0 0 -170 0 -170 -85 0 -85 0 0 -90 0 -90 -265 0 -264 0 -3 88 -3 87 -87 3
-87 3 -3 87 -3 87 -82 3 -83 3 0 79 0 80 78 0 c47 0 83 5 90 12 7 7 12 43 12
90 l0 78 85 0 85 0 0 83 c0 46 3 87 7 91 4 3 81 5 172 4 l166 -3 3 -87z m1782
-530 l0 -91 -142 6 c-79 4 -317 7 -530 7 l-388 0 0 85 0 85 530 0 530 0 0 -92z
m350 2 l0 -90 -85 0 -85 0 0 90 0 90 85 0 85 0 0 -90z m350 5 l0 -85 -80 0
-80 0 0 78 c0 43 3 82 7 85 3 4 39 7 80 7 l73 0 0 -85z m-3540 -355 l0 -90
175 0 175 0 0 -90 0 -90 -180 0 -180 0 0 85 0 84 -87 3 -88 3 -3 93 -3 92 96
0 95 0 0 -90z m170 -720 l5 -85 85 -5 85 -5 3 -172 2 -173 173 -2 172 -3 5
-85 5 -85 85 -5 85 -5 0 -260 0 -260 -90 -3 c-49 -2 -168 0 -263 3 l-173 7 1
32 c1 17 2 54 1 82 l-1 52 -175 7 -175 7 0 79 0 79 85 0 85 0 0 95 0 96 -87
-3 -88 -3 -3 -88 -3 -87 -172 2 -172 3 -3 88 -3 87 -84 0 -85 0 0 78 c0 47 -5
83 -12 90 -7 7 -43 12 -90 12 l-78 0 0 170 0 169 88 3 87 3 3 88 3 87 347 -2
347 -3 5 -85z m-890 -885 l0 -85 -85 0 -85 0 0 85 0 85 85 0 85 0 0 -85z m360
-355 l0 -90 -85 0 -85 0 0 -77 c0 -43 -4 -84 -9 -91 -5 -9 -31 -12 -92 -10
l-84 3 0 90 0 90 88 3 87 3 0 84 0 85 90 0 90 0 0 -90z m-1075 -355 l0 -80
-170 0 -170 0 -3 69 c-2 38 -1 75 2 83 5 11 38 13 173 11 l168 -3 0 -80z
m2667 -2 l3 -88 86 -3 86 -3 6 -127 c4 -70 7 -229 7 -354 l0 -227 83 -3 82 -3
3 -347 2 -348 -85 0 -85 0 0 90 0 90 -90 0 -90 0 0 85 0 85 -75 0 c-41 0 -78
-1 -82 -2 -5 -2 -10 78 -13 177 l-5 180 -86 3 -87 3 -7 179 c-4 99 -4 256 0
350 l7 169 87 3 86 3 3 88 3 87 79 0 79 0 3 -87z m-3022 -178 l0 -85 -170 0
-170 0 0 85 0 85 170 0 170 0 0 -85z"/>
<path d="M3920 7045 l0 -85 90 0 90 0 0 85 0 85 -90 0 -90 0 0 -85z"/>
<path d="M3570 6865 l0 -85 85 0 85 0 0 85 0 85 -85 0 -85 0 0 -85z"/>
</g>
</svg>
